<svg xmlns="http://www.w3.org/2000/svg" width="1440" viewBox="0 0 1440 810" height="810" version="1.0"><defs><clipPath id="a"><path d="M 0 192 L 1440 192 L 1440 729.175781 L 0 729.175781 Z M 0 192"/></clipPath><clipPath id="b"><path d="M 0 41.425781 L 1440 41.425781 L 1440 583 L 0 583 Z M 0 41.425781"/></clipPath></defs><path fill="#FFF" d="M-144 -81H1584V891H-144z"/><path fill="#FFF" d="M-144 -81H1584V891H-144z"/><path d="M-144 -81H1584V891H-144z"/><g clip-path="url(#a)"><path fill="#98D4C3" d="M 1130.328125 331.097656 C 1096.539062 349.75 1062.164062 369.273438 1028.664062 388.507812 C 885.054688 470.398438 736.785156 554.910156 569.578125 602.703125 C 454.515625 635.632812 326.34375 652.535156 166.421875 655.738281 C 151.859375 656.03125 137.292969 656.03125 122.726562 656.03125 C 77.285156 656.03125 33.589844 654.574219 -8.648438 651.660156 L -8.648438 725.097656 C 33.882812 728.011719 77.578125 729.175781 122.726562 729.175781 C 137.585938 729.175781 152.730469 728.886719 167.878906 728.886719 C 334.210938 725.679688 468.207031 707.902344 589.679688 673.226562 C 765.332031 623.101562 917.679688 536.257812 1064.785156 452.328125 C 1097.992188 433.386719 1132.074219 413.863281 1165.285156 395.5 C 1252.382812 347.710938 1348.800781 299.042969 1447.84375 269.316406 L 1447.84375 192.675781 C 1335.402344 223.855469 1227.039062 277.769531 1130.328125 331.097656 Z M 1130.328125 331.097656"/></g><path fill="#57C6A6" d="M 992.542969 324.6875 C 852.722656 404.246094 708.238281 486.714844 549.769531 532.175781 C 440.824219 563.359375 318.773438 579.386719 165.257812 582.300781 C 150.984375 582.59375 137.003906 582.59375 123.019531 582.59375 C 77.578125 582.59375 33.589844 581.136719 -8.355469 577.929688 L -8.355469 651.367188 C 33.882812 654.28125 77.578125 655.738281 123.019531 655.738281 C 137.292969 655.738281 151.859375 655.738281 166.714844 655.449219 C 326.636719 652.242188 454.515625 635.339844 569.871094 602.410156 C 737.074219 554.617188 885.347656 470.105469 1028.957031 388.214844 C 1062.164062 369.273438 1096.828125 349.457031 1130.617188 330.808594 C 1227.328125 277.476562 1335.402344 223.566406 1448.425781 192.382812 L 1448.425781 116.613281 C 1321.710938 148.667969 1201.695312 208.121094 1095.082031 266.695312 C 1060.707031 285.636719 1026.042969 305.453125 992.542969 324.6875 Z M 992.542969 324.6875"/><g clip-path="url(#b)"><path fill="#249977" d="M 123.019531 582.59375 C 137.003906 582.59375 150.984375 582.59375 165.257812 582.300781 C 318.480469 579.097656 440.824219 563.359375 549.769531 532.175781 C 708.527344 486.714844 853.011719 404.535156 992.542969 324.6875 C 1026.042969 305.453125 1060.707031 285.636719 1095.082031 266.984375 C 1201.695312 208.410156 1321.417969 148.960938 1448.425781 116.90625 L 1448.425781 41.425781 C 1307.4375 74.066406 1175.769531 138.761719 1059.832031 202.582031 C 1025.167969 221.816406 990.214844 241.632812 956.421875 260.867188 C 820.386719 338.382812 679.691406 418.523438 529.671875 461.363281 C 427.136719 490.796875 310.90625 505.660156 163.800781 508.574219 C 103.210938 509.738281 45.824219 508.28125 -8.355469 504.203125 L -8.355469 577.640625 C 33.589844 581.136719 77.285156 582.59375 123.019531 582.59375 Z M 123.019531 582.59375"/></g></svg>